<svg xmlns="http://www.w3.org/2000/svg" viewBox="0 0 100 125" xml:space="preserve"><path d="M81.37 41.175h-3.92v3.92h7.84v-3.92h-1.96zm-3.92 23.53h-1.96v-1.96h-3.92v3.92h1.96v1.96h1.96v1.96h3.92v-3.92h-1.96zm-1.96-47.06v1.96h-1.96v1.96h-1.96v3.92h3.92v-1.96h1.96v-1.96h1.96v-3.92h-1.96zm-1.96 39.22v-23.53h-3.92v-3.93h-3.92v-3.92h-3.93v-3.92H38.23v3.92h-3.92v3.92h-3.92v3.93h-3.92v23.53h3.92v3.92h3.92v3.92h3.92v7.84h1.97v1.96h1.96v1.96h5.88v1.96h5.88v-1.96h5.88v-3.92h1.96v-7.84h3.93v-3.92h3.92v-3.92zM59.8 27.445v1.96h3.93v1.96h1.96v3.93h3.92v1.96h-3.92v-1.96h-1.96v-3.93H59.8v-1.96h-1.96v-3.92h1.96zm-7.84 47.06v-5.88h1.96v-5.88h1.96v-5.88h-1.96v1.96h-7.84v-1.96h-1.96v5.88h1.96v5.88h1.96v5.88h-1.96v-5.88h-1.96v-5.88h-1.96v-5.88h-3.93v-1.97h-1.96v-1.96h1.96v-1.96h1.97v-1.96h3.92v1.96h1.96v5.89h7.84v-5.89h1.96v-1.96h3.92v1.96h1.96v1.96h1.97v1.96h-1.97v1.97h-3.92v5.88h-1.96v5.88h-1.96v5.88z"/><path d="M57.84 54.895h3.92v-1.96H59.8v-1.96h-3.92v5.89h1.96zm-1.96 29.42h3.92v-1.96h-5.88v1.96zm0-3.93h3.92v-1.96h-5.88v1.96zm-3.92 7.85h-3.92v-1.96h-5.88v1.96h1.96v1.96h11.76v-1.96h1.96v-1.96h-3.92v1.96zM50 84.315h-1.96v1.96h5.88v-1.96h-1.96zm0-3.93h-1.96v1.97h5.88v-1.97h-1.96zm-1.96-70.58v7.84h3.92v-7.84H50zm-1.96 74.51h1.96v-1.96h-5.88v1.96h1.96zm0-3.93h1.96v-1.96h-5.88v1.96h1.96zm-1.96-27.45v-1.96H40.2v1.96h-1.97v1.96h3.93v1.97h1.96v-1.97zm-3.92 31.38h1.96v1.96H40.2zm0-3.93h1.96v1.97H40.2zm0-3.92h1.96v1.96H40.2zm-15.69-13.72v1.96h-1.96v1.96h-1.96v3.92h3.92v-1.96h1.96v-1.96h1.96v-3.92h-1.96zm-1.96-39.22h1.96v1.96h3.92v-3.92h-1.96v-1.96h-1.96v-1.96h-3.92v3.92h1.96zm0 21.57v-3.92h-7.84v3.92h5.88z"/></svg>